<mxfile host="app.diagrams.net" modified="2023-01-31T13:22:32.431Z" agent="5.0 (Windows NT 10.0; Win64; x64) AppleWebKit/537.36 (KHTML, like Gecko) Chrome/109.0.0.0 Safari/537.36" etag="BtWaF3efDHMuAlkWZzJF" version="20.8.10" type="github">
  <diagram name="Page-1" id="74e2e168-ea6b-b213-b513-2b3c1d86103e">
    <mxGraphModel dx="2357" dy="703" grid="1" gridSize="10" guides="1" tooltips="1" connect="1" arrows="1" fold="1" page="1" pageScale="1" pageWidth="1100" pageHeight="850" background="none" math="0" shadow="0">
      <root>
        <mxCell id="0" />
        <mxCell id="1" parent="0" />
        <mxCell id="IeekxSQH6NiprZ2hfTpN-3" value="" style="edgeStyle=orthogonalEdgeStyle;rounded=0;orthogonalLoop=1;jettySize=auto;html=1;" edge="1" parent="1" source="IeekxSQH6NiprZ2hfTpN-1" target="IeekxSQH6NiprZ2hfTpN-2">
          <mxGeometry relative="1" as="geometry" />
        </mxCell>
        <mxCell id="IeekxSQH6NiprZ2hfTpN-1" value="&lt;b&gt;Login Activity&lt;/b&gt;" style="ellipse;whiteSpace=wrap;html=1;fillColor=#dae8fc;strokeColor=#6c8ebf;" vertex="1" parent="1">
          <mxGeometry x="230" y="30" width="120" height="80" as="geometry" />
        </mxCell>
        <mxCell id="IeekxSQH6NiprZ2hfTpN-11" value="Admin" style="edgeStyle=orthogonalEdgeStyle;rounded=0;orthogonalLoop=1;jettySize=auto;html=1;" edge="1" parent="1" source="IeekxSQH6NiprZ2hfTpN-2" target="IeekxSQH6NiprZ2hfTpN-4">
          <mxGeometry x="0.875" y="-10" relative="1" as="geometry">
            <Array as="points">
              <mxPoint x="290" y="300" />
              <mxPoint x="520" y="300" />
            </Array>
            <mxPoint x="10" y="-10" as="offset" />
          </mxGeometry>
        </mxCell>
        <mxCell id="IeekxSQH6NiprZ2hfTpN-12" value="Sorting" style="edgeStyle=orthogonalEdgeStyle;rounded=0;orthogonalLoop=1;jettySize=auto;html=1;entryX=0.5;entryY=0;entryDx=0;entryDy=0;" edge="1" parent="1" source="IeekxSQH6NiprZ2hfTpN-2" target="IeekxSQH6NiprZ2hfTpN-8">
          <mxGeometry x="0.9048" y="-10" relative="1" as="geometry">
            <mxPoint x="40" y="180" as="targetPoint" />
            <Array as="points">
              <mxPoint x="290" y="300" />
              <mxPoint x="-40" y="300" />
            </Array>
            <mxPoint x="10" y="-10" as="offset" />
          </mxGeometry>
        </mxCell>
        <mxCell id="IeekxSQH6NiprZ2hfTpN-14" value="Packing" style="edgeStyle=orthogonalEdgeStyle;rounded=0;orthogonalLoop=1;jettySize=auto;html=1;" edge="1" parent="1" source="IeekxSQH6NiprZ2hfTpN-2" target="IeekxSQH6NiprZ2hfTpN-7">
          <mxGeometry x="0.852" y="-10" relative="1" as="geometry">
            <Array as="points">
              <mxPoint x="290" y="300" />
              <mxPoint x="110" y="300" />
            </Array>
            <mxPoint x="10" y="-10" as="offset" />
          </mxGeometry>
        </mxCell>
        <mxCell id="IeekxSQH6NiprZ2hfTpN-24" value="Driver" style="edgeStyle=orthogonalEdgeStyle;rounded=0;orthogonalLoop=1;jettySize=auto;html=1;entryX=0.5;entryY=0;entryDx=0;entryDy=0;" edge="1" parent="1" source="IeekxSQH6NiprZ2hfTpN-2" target="IeekxSQH6NiprZ2hfTpN-6">
          <mxGeometry x="0.7778" y="10" relative="1" as="geometry">
            <Array as="points">
              <mxPoint x="290" y="300" />
              <mxPoint x="380" y="300" />
            </Array>
            <mxPoint x="-10" y="-10" as="offset" />
          </mxGeometry>
        </mxCell>
        <mxCell id="IeekxSQH6NiprZ2hfTpN-26" style="edgeStyle=orthogonalEdgeStyle;rounded=0;orthogonalLoop=1;jettySize=auto;html=1;" edge="1" parent="1" source="IeekxSQH6NiprZ2hfTpN-2" target="IeekxSQH6NiprZ2hfTpN-25">
          <mxGeometry relative="1" as="geometry">
            <Array as="points">
              <mxPoint x="290" y="300" />
              <mxPoint x="-200" y="300" />
            </Array>
          </mxGeometry>
        </mxCell>
        <mxCell id="IeekxSQH6NiprZ2hfTpN-32" style="edgeStyle=orthogonalEdgeStyle;rounded=0;orthogonalLoop=1;jettySize=auto;html=1;" edge="1" parent="1" source="IeekxSQH6NiprZ2hfTpN-2" target="IeekxSQH6NiprZ2hfTpN-31">
          <mxGeometry relative="1" as="geometry">
            <Array as="points">
              <mxPoint x="290" y="300" />
              <mxPoint x="700" y="300" />
            </Array>
          </mxGeometry>
        </mxCell>
        <mxCell id="IeekxSQH6NiprZ2hfTpN-2" value="check user Permission" style="rhombus;whiteSpace=wrap;html=1;" vertex="1" parent="1">
          <mxGeometry x="235" y="130" width="110" height="100" as="geometry" />
        </mxCell>
        <mxCell id="IeekxSQH6NiprZ2hfTpN-30" style="edgeStyle=orthogonalEdgeStyle;rounded=0;orthogonalLoop=1;jettySize=auto;html=1;entryX=0.5;entryY=0;entryDx=0;entryDy=0;" edge="1" parent="1" source="IeekxSQH6NiprZ2hfTpN-4" target="IeekxSQH6NiprZ2hfTpN-33">
          <mxGeometry relative="1" as="geometry">
            <mxPoint x="530" y="440" as="targetPoint" />
            <Array as="points" />
          </mxGeometry>
        </mxCell>
        <mxCell id="IeekxSQH6NiprZ2hfTpN-4" value="DashboardActivity" style="rounded=0;whiteSpace=wrap;html=1;" vertex="1" parent="1">
          <mxGeometry x="490" y="320" width="120" height="60" as="geometry" />
        </mxCell>
        <mxCell id="IeekxSQH6NiprZ2hfTpN-48" style="edgeStyle=orthogonalEdgeStyle;rounded=0;orthogonalLoop=1;jettySize=auto;html=1;" edge="1" parent="1" source="IeekxSQH6NiprZ2hfTpN-6" target="IeekxSQH6NiprZ2hfTpN-44">
          <mxGeometry relative="1" as="geometry" />
        </mxCell>
        <mxCell id="IeekxSQH6NiprZ2hfTpN-6" value="DriverActivity" style="rounded=0;whiteSpace=wrap;html=1;" vertex="1" parent="1">
          <mxGeometry x="320" y="320" width="120" height="60" as="geometry" />
        </mxCell>
        <mxCell id="IeekxSQH6NiprZ2hfTpN-54" style="edgeStyle=orthogonalEdgeStyle;rounded=0;orthogonalLoop=1;jettySize=auto;html=1;" edge="1" parent="1" source="IeekxSQH6NiprZ2hfTpN-7" target="IeekxSQH6NiprZ2hfTpN-50">
          <mxGeometry relative="1" as="geometry">
            <Array as="points">
              <mxPoint x="110" y="430" />
              <mxPoint x="110" y="430" />
            </Array>
          </mxGeometry>
        </mxCell>
        <mxCell id="IeekxSQH6NiprZ2hfTpN-7" value="PackingActivity" style="rounded=0;whiteSpace=wrap;html=1;" vertex="1" parent="1">
          <mxGeometry x="50" y="320" width="120" height="60" as="geometry" />
        </mxCell>
        <mxCell id="IeekxSQH6NiprZ2hfTpN-60" style="edgeStyle=orthogonalEdgeStyle;rounded=0;orthogonalLoop=1;jettySize=auto;html=1;" edge="1" parent="1" source="IeekxSQH6NiprZ2hfTpN-8" target="IeekxSQH6NiprZ2hfTpN-56">
          <mxGeometry relative="1" as="geometry" />
        </mxCell>
        <mxCell id="IeekxSQH6NiprZ2hfTpN-8" value="SortingActivity" style="rounded=0;whiteSpace=wrap;html=1;" vertex="1" parent="1">
          <mxGeometry x="-100" y="320" width="120" height="60" as="geometry" />
        </mxCell>
        <mxCell id="IeekxSQH6NiprZ2hfTpN-25" value="" style="rounded=0;whiteSpace=wrap;html=1;" vertex="1" parent="1">
          <mxGeometry x="-260" y="320" width="120" height="60" as="geometry" />
        </mxCell>
        <mxCell id="IeekxSQH6NiprZ2hfTpN-31" value="" style="rounded=0;whiteSpace=wrap;html=1;" vertex="1" parent="1">
          <mxGeometry x="640" y="320" width="120" height="60" as="geometry" />
        </mxCell>
        <mxCell id="IeekxSQH6NiprZ2hfTpN-33" value="CRUD Operation on" style="swimlane;fontStyle=0;childLayout=stackLayout;horizontal=1;startSize=30;horizontalStack=0;resizeParent=1;resizeParentMax=0;resizeLast=0;collapsible=1;marginBottom=0;whiteSpace=wrap;html=1;" vertex="1" parent="1">
          <mxGeometry x="480" y="440" width="140" height="210" as="geometry" />
        </mxCell>
        <mxCell id="IeekxSQH6NiprZ2hfTpN-42" value="Users&lt;span style=&quot;white-space: pre;&quot;&gt;	&lt;/span&gt;" style="text;strokeColor=none;fillColor=none;align=left;verticalAlign=middle;spacingLeft=4;spacingRight=4;overflow=hidden;points=[[0,0.5],[1,0.5]];portConstraint=eastwest;rotatable=0;whiteSpace=wrap;html=1;" vertex="1" parent="IeekxSQH6NiprZ2hfTpN-33">
          <mxGeometry y="30" width="140" height="30" as="geometry" />
        </mxCell>
        <mxCell id="IeekxSQH6NiprZ2hfTpN-41" value="Branches&lt;span style=&quot;white-space: pre;&quot;&gt;	&lt;/span&gt;" style="text;strokeColor=none;fillColor=none;align=left;verticalAlign=middle;spacingLeft=4;spacingRight=4;overflow=hidden;points=[[0,0.5],[1,0.5]];portConstraint=eastwest;rotatable=0;whiteSpace=wrap;html=1;" vertex="1" parent="IeekxSQH6NiprZ2hfTpN-33">
          <mxGeometry y="60" width="140" height="30" as="geometry" />
        </mxCell>
        <mxCell id="IeekxSQH6NiprZ2hfTpN-40" value="Department" style="text;strokeColor=none;fillColor=none;align=left;verticalAlign=middle;spacingLeft=4;spacingRight=4;overflow=hidden;points=[[0,0.5],[1,0.5]];portConstraint=eastwest;rotatable=0;whiteSpace=wrap;html=1;" vertex="1" parent="IeekxSQH6NiprZ2hfTpN-33">
          <mxGeometry y="90" width="140" height="30" as="geometry" />
        </mxCell>
        <mxCell id="IeekxSQH6NiprZ2hfTpN-39" value="Jobs" style="text;strokeColor=none;fillColor=none;align=left;verticalAlign=middle;spacingLeft=4;spacingRight=4;overflow=hidden;points=[[0,0.5],[1,0.5]];portConstraint=eastwest;rotatable=0;whiteSpace=wrap;html=1;" vertex="1" parent="IeekxSQH6NiprZ2hfTpN-33">
          <mxGeometry y="120" width="140" height="30" as="geometry" />
        </mxCell>
        <mxCell id="IeekxSQH6NiprZ2hfTpN-34" value="Modules" style="text;strokeColor=none;fillColor=none;align=left;verticalAlign=middle;spacingLeft=4;spacingRight=4;overflow=hidden;points=[[0,0.5],[1,0.5]];portConstraint=eastwest;rotatable=0;whiteSpace=wrap;html=1;" vertex="1" parent="IeekxSQH6NiprZ2hfTpN-33">
          <mxGeometry y="150" width="140" height="30" as="geometry" />
        </mxCell>
        <mxCell id="IeekxSQH6NiprZ2hfTpN-35" value="Vehicle" style="text;strokeColor=none;fillColor=none;align=left;verticalAlign=middle;spacingLeft=4;spacingRight=4;overflow=hidden;points=[[0,0.5],[1,0.5]];portConstraint=eastwest;rotatable=0;whiteSpace=wrap;html=1;" vertex="1" parent="IeekxSQH6NiprZ2hfTpN-33">
          <mxGeometry y="180" width="140" height="30" as="geometry" />
        </mxCell>
        <mxCell id="IeekxSQH6NiprZ2hfTpN-44" value="Operation" style="swimlane;fontStyle=0;childLayout=stackLayout;horizontal=1;startSize=30;horizontalStack=0;resizeParent=1;resizeParentMax=0;resizeLast=0;collapsible=1;marginBottom=0;whiteSpace=wrap;html=1;" vertex="1" parent="1">
          <mxGeometry x="310" y="440" width="140" height="120" as="geometry" />
        </mxCell>
        <mxCell id="IeekxSQH6NiprZ2hfTpN-45" value="Receive shipment" style="text;strokeColor=none;fillColor=none;align=left;verticalAlign=middle;spacingLeft=4;spacingRight=4;overflow=hidden;points=[[0,0.5],[1,0.5]];portConstraint=eastwest;rotatable=0;whiteSpace=wrap;html=1;" vertex="1" parent="IeekxSQH6NiprZ2hfTpN-44">
          <mxGeometry y="30" width="140" height="30" as="geometry" />
        </mxCell>
        <mxCell id="IeekxSQH6NiprZ2hfTpN-46" value="View&amp;nbsp;received shipment&amp;nbsp;" style="text;strokeColor=none;fillColor=none;align=left;verticalAlign=middle;spacingLeft=4;spacingRight=4;overflow=hidden;points=[[0,0.5],[1,0.5]];portConstraint=eastwest;rotatable=0;whiteSpace=wrap;html=1;" vertex="1" parent="IeekxSQH6NiprZ2hfTpN-44">
          <mxGeometry y="60" width="140" height="30" as="geometry" />
        </mxCell>
        <mxCell id="IeekxSQH6NiprZ2hfTpN-47" value="Perfomance Summary" style="text;strokeColor=none;fillColor=none;align=left;verticalAlign=middle;spacingLeft=4;spacingRight=4;overflow=hidden;points=[[0,0.5],[1,0.5]];portConstraint=eastwest;rotatable=0;whiteSpace=wrap;html=1;" vertex="1" parent="IeekxSQH6NiprZ2hfTpN-44">
          <mxGeometry y="90" width="140" height="30" as="geometry" />
        </mxCell>
        <mxCell id="IeekxSQH6NiprZ2hfTpN-50" value="Operation" style="swimlane;fontStyle=0;childLayout=stackLayout;horizontal=1;startSize=30;horizontalStack=0;resizeParent=1;resizeParentMax=0;resizeLast=0;collapsible=1;marginBottom=0;whiteSpace=wrap;html=1;" vertex="1" parent="1">
          <mxGeometry x="50" y="440" width="140" height="120" as="geometry" />
        </mxCell>
        <mxCell id="IeekxSQH6NiprZ2hfTpN-51" value="New shipment package" style="text;strokeColor=none;fillColor=none;align=left;verticalAlign=middle;spacingLeft=4;spacingRight=4;overflow=hidden;points=[[0,0.5],[1,0.5]];portConstraint=eastwest;rotatable=0;whiteSpace=wrap;html=1;" vertex="1" parent="IeekxSQH6NiprZ2hfTpN-50">
          <mxGeometry y="30" width="140" height="30" as="geometry" />
        </mxCell>
        <mxCell id="IeekxSQH6NiprZ2hfTpN-52" value="Reprint AWB&lt;span style=&quot;white-space: pre;&quot;&gt;	&lt;/span&gt;" style="text;strokeColor=none;fillColor=none;align=left;verticalAlign=middle;spacingLeft=4;spacingRight=4;overflow=hidden;points=[[0,0.5],[1,0.5]];portConstraint=eastwest;rotatable=0;whiteSpace=wrap;html=1;" vertex="1" parent="IeekxSQH6NiprZ2hfTpN-50">
          <mxGeometry y="60" width="140" height="30" as="geometry" />
        </mxCell>
        <mxCell id="IeekxSQH6NiprZ2hfTpN-53" value="AWB Print" style="text;strokeColor=none;fillColor=none;align=left;verticalAlign=middle;spacingLeft=4;spacingRight=4;overflow=hidden;points=[[0,0.5],[1,0.5]];portConstraint=eastwest;rotatable=0;whiteSpace=wrap;html=1;" vertex="1" parent="IeekxSQH6NiprZ2hfTpN-50">
          <mxGeometry y="90" width="140" height="30" as="geometry" />
        </mxCell>
        <mxCell id="IeekxSQH6NiprZ2hfTpN-56" value="Operation" style="swimlane;fontStyle=0;childLayout=stackLayout;horizontal=1;startSize=30;horizontalStack=0;resizeParent=1;resizeParentMax=0;resizeLast=0;collapsible=1;marginBottom=0;whiteSpace=wrap;html=1;" vertex="1" parent="1">
          <mxGeometry x="-110" y="440" width="140" height="150" as="geometry" />
        </mxCell>
        <mxCell id="IeekxSQH6NiprZ2hfTpN-57" value="Receipt of new shipment" style="text;strokeColor=none;fillColor=none;align=left;verticalAlign=middle;spacingLeft=4;spacingRight=4;overflow=hidden;points=[[0,0.5],[1,0.5]];portConstraint=eastwest;rotatable=0;whiteSpace=wrap;html=1;" vertex="1" parent="IeekxSQH6NiprZ2hfTpN-56">
          <mxGeometry y="30" width="140" height="30" as="geometry" />
        </mxCell>
        <mxCell id="IeekxSQH6NiprZ2hfTpN-58" value="Delivery area" style="text;strokeColor=none;fillColor=none;align=left;verticalAlign=middle;spacingLeft=4;spacingRight=4;overflow=hidden;points=[[0,0.5],[1,0.5]];portConstraint=eastwest;rotatable=0;whiteSpace=wrap;html=1;" vertex="1" parent="IeekxSQH6NiprZ2hfTpN-56">
          <mxGeometry y="60" width="140" height="30" as="geometry" />
        </mxCell>
        <mxCell id="IeekxSQH6NiprZ2hfTpN-59" value="Delivery person" style="text;strokeColor=none;fillColor=none;align=left;verticalAlign=middle;spacingLeft=4;spacingRight=4;overflow=hidden;points=[[0,0.5],[1,0.5]];portConstraint=eastwest;rotatable=0;whiteSpace=wrap;html=1;" vertex="1" parent="IeekxSQH6NiprZ2hfTpN-56">
          <mxGeometry y="90" width="140" height="30" as="geometry" />
        </mxCell>
        <mxCell id="IeekxSQH6NiprZ2hfTpN-63" value="Print runtime sheet" style="text;strokeColor=none;fillColor=none;align=left;verticalAlign=middle;spacingLeft=4;spacingRight=4;overflow=hidden;points=[[0,0.5],[1,0.5]];portConstraint=eastwest;rotatable=0;whiteSpace=wrap;html=1;" vertex="1" parent="IeekxSQH6NiprZ2hfTpN-56">
          <mxGeometry y="120" width="140" height="30" as="geometry" />
        </mxCell>
      </root>
    </mxGraphModel>
  </diagram>
</mxfile>
